<svg id="Layer_1" data-name="Layer 1" xmlns="http://www.w3.org/2000/svg" viewBox="0 0 484.84 359.48"><defs><style>.cls-1{fill:#fefefe;}.cls-2{fill:#8c8c8c;}.cls-3{fill:#58585e;}.cls-4{fill:#414047;}.cls-5{fill:#959596;}.cls-6{fill:#f14910;}.cls-7{fill:#a6a7ad;}.cls-8{fill:#abacb2;}.cls-9{fill:#a0a1a8;}.cls-10{fill:#fd425f;}.cls-11{fill:#f88667;}.cls-12{fill:#2d3030;}.cls-13{fill:#e45940;}.cls-14{fill:#e42244;}</style></defs><title>chicagraficos</title><rect x="71.91" y="237.73" width="341.02" height="50.07"/><path d="M60.46,0H424.37a20.92,20.92,0,0,1,20.92,20.92V251.07A20.92,20.92,0,0,1,424.37,272H60.46a20.91,20.91,0,0,1-20.91-20.91V20.92A20.92,20.92,0,0,1,60.46,0Z"/><rect class="cls-1" x="58.23" y="18.02" width="368.38" height="233.13"/><path d="M25.16,376.25v7.43c0,4.11,4.48,7.45,10,7.45H500c5.52,0,10-3.33,10-7.45v-7.43Z" transform="translate(-25.16 -31.64)"/><path d="M267.58,318.88h-199c-.67.71-32,28.72-41.51,49.52C23,377.3,25.65,382,33.26,382H501.9c7.61,0,10.28-4.68,6.19-13.57-9.56-20.8-40.84-48.81-41.51-49.52Z" transform="translate(-25.16 -31.64)"/><polygon class="cls-2" points="459.66 339.69 35.64 339.69 65.02 296.19 430.27 296.19 459.66 339.69"/><path class="cls-3" d="M479.66,363.7l-.92-1.36h-28.3l-5.27-10.55h26.44l-.92-1.36H444.5l-5.27-10.55h24.34l-.92-1.36h-24.1l-5.33-10.68h-2.44L436,338.52H405.73l-4.25-10.68H399l4.16,10.68H372.91l-3.16-10.68H367.3l3.08,10.68H340.09L338,327.84h-2.44l2,10.68H307.27l-1-10.68h-2.45l.91,10.68H276V327.84H273.3v10.68H243.5l.91-10.68H242l-1,10.68H210.68l2-10.68h-2.44l-2.08,10.68H177.86l3.08-10.68h-2.45l-3.16,10.68H145l4.16-10.68h-2.45l-4.25,10.68H112.22l5.25-10.68H115l-5.33,10.68H83l-.92,1.36h27l-5.27,10.55H74.92L74,351.79h29.06l-5.27,10.55H66.88L66,363.7H97.11l-3.81,7.63h2.79l3.75-7.63h32.65l-3,7.63h2.79l3-7.63h32.65l-2.26,7.63h2.79l2.2-7.63h32.65l-1.48,7.63h2.78L206,363.7h32.65l-.71,7.63h2.79l.65-7.63H273.3v7.63H276V363.7h30.9l.65,7.63h2.79l-.71-7.63h32.65l1.42,7.63h2.79L345,363.7h32.65l2.2,7.63h2.79l-2.26-7.63H413l3,7.63h2.79l-3-7.63H448.4l3.75,7.63h2.78l-3.81-7.63ZM144.51,339.88h30.42l-3.13,10.55H140.39Zm-33,0H142l-4.2,10.55H106.36ZM133,362.34H100.51l5.19-10.55h31.54Zm35.24,0H135.75l4.11-10.55H171.4Zm35.24,0H171l3-10.55h31.54Zm2.32-11.91H174.42l3-10.55h30.42Zm32.92,11.91H206.23l2-10.55h31.54Zm1.11-11.91H208.45l2-10.55h30.42Zm33.44,11.91H241.47l.9-10.55H273.3Zm0-11.91H242.48l.9-10.55H273.3ZM276,339.88h28.87l.9,10.55H276Zm0,22.47V351.79h29.88l.9,10.55Zm160.7-22.47,5.19,10.55H410.47l-4.2-10.55Zm-33,0,4.11,10.55H376.44l-3.12-10.55Zm-96.34,0h30.42l2,10.55H308.38Zm2.09,22.47-1-10.55H340l2,10.55Zm30.87-22.47h30.42l3,10.55H342.41Zm4.37,22.47-2.05-10.55h31.54l3,10.55Zm35.24,0-3.12-10.55h31.54l4.11,10.55Zm35.24,0L411,351.79h31.54l5.19,10.55Z" transform="translate(-25.16 -31.64)"/><path class="cls-4" d="M267.58,382H247a4.25,4.25,0,0,0,1,2.85,2.24,2.24,0,0,0,1.56.58h36a2.24,2.24,0,0,0,1.56-.58,4.25,4.25,0,0,0,1-2.85Z" transform="translate(-25.16 -31.64)"/><path class="cls-5" d="M412.88,261.57H122.29V84.24H412.88Zm-285.17-5.42H407.45V89.67H127.71Z" transform="translate(-25.16 -31.64)"/><rect class="cls-6" x="318.43" y="97.23" width="27.02" height="115.67"/><rect class="cls-7" x="268.35" y="159.71" width="27.02" height="53.19"/><rect class="cls-6" x="218.28" y="146.84" width="27.02" height="66.06"/><rect class="cls-8" x="168.2" y="109.43" width="27.02" height="103.47"/><rect class="cls-9" x="118.13" y="132.14" width="27.02" height="80.76"/><polygon points="282.46 139.06 231.14 128.87 181.68 81.61 132.54 125.02 130.75 122.99 181.75 77.93 232.44 126.37 281.27 136.06 330.83 66.28 333.04 67.84 282.46 139.06"/><circle class="cls-10" cx="131.64" cy="124" r="6.1"/><circle class="cls-6" cx="181.38" cy="79.77" r="6.1"/><circle class="cls-6" cx="231.79" cy="127.56" r="6.1"/><circle class="cls-6" cx="281.86" cy="136.21" r="6.1"/><circle class="cls-6" cx="331.94" cy="68.25" r="6.1"/><path class="cls-11" d="M205.7,145.18c2-.61,3.84-1.23,5.22-2.71a6.78,6.78,0,0,1,2.09-1.78,14.46,14.46,0,0,0,2.59-1.81,5.65,5.65,0,0,1,2.73-1.52c1.3-.12.61,1.4,0,2.35s-4.22,2.44-4.06,3.73,4.38-.7,5.22-1.11c2-1,2.1-2.6,3.27-4.21.68-.94,1.28-1.16,1.7.11.31.95-.34,1.92-.81,2.71a11.88,11.88,0,0,1-4.06,4.13,13.86,13.86,0,0,0,4.18-3.46c.66-.8,2.88-4.69,4.23-3.76,2.7,1.87-4.72,8.73-6.49,9.27a16.25,16.25,0,0,0,4.43-3.21c.81-.72,2.64-2.51,3-.59.46,2.83-5.07,4.89-7.37,6.25a19.08,19.08,0,0,0,4.76-2.11c2.06-1,2.11.84.18,2.27a26,26,0,0,1-3,1.72c-4.21,2-6.8,2.07-11.27,1.59-1.61-.17-4.73,1.2-5.67.17C204.66,151.21,205.63,147.47,205.7,145.18Z" transform="translate(-25.16 -31.64)"/><path class="cls-10" d="M206.87,144.59l3.28,10.84s-38.33,9.9-47.66,11.35-29.81-22-29.81-22-7-17-1.76-16.74c4,.17,33.38,22.58,35,23.45S206.87,144.59,206.87,144.59Z" transform="translate(-25.16 -31.64)"/><path class="cls-11" d="M106.44,338.13s-.28,7.33,1,10.78,10.09,8.71,10.09,8.71-8,1.55-11.08-.83S96,342,96.52,340.37s2.69-6.61,2.69-6.61Z" transform="translate(-25.16 -31.64)"/><path class="cls-11" d="M154.15,333.64s-.28,7.33,1,10.78,10.09,8.71,10.09,8.71-8,1.55-11.08-.83-10.37-14.81-9.89-16.43,2.69-6.61,2.69-6.61Z" transform="translate(-25.16 -31.64)"/><path d="M98.35,338.13s-6.72,2.24-5,8.12a51.15,51.15,0,0,1,1.4,13.44h2s.42-8.4,1.68-8.12,4.06,8.12,6.86,8.12H121s1.68-1.68,0-2.66-12.4-.56-13.62-2.94S98.35,338.13,98.35,338.13Z" transform="translate(-25.16 -31.64)"/><path d="M146.44,333.45s-6.72,2.24-5,8.12A51.17,51.17,0,0,1,142.8,355h2s.42-8.4,1.68-8.12S150.5,355,153.3,355h15.82s1.68-1.68,0-2.66-12.4-.56-13.62-2.94S146.44,333.45,146.44,333.45Z" transform="translate(-25.16 -31.64)"/><path d="M142,187.35s-18.82,6.61-32.46,0c0,0-8.26,6.93-9.57,21.09a77,77,0,0,0,.56,15.91c.95,7.88,3.24,28.52,1.81,41.26-2.1,18.65-7.89,72.74-7.89,72.74l13,2s11.92-65.3,13.33-73.36,5.95-40.8,5.95-40.8,8.08,25.32,10.16,37.58c.32,1.88,6.08,71.22,6.08,71.22l12.57-.08s-.7-77-.7-73C154.79,263.61,151.39,210,142,187.35Z" transform="translate(-25.16 -31.64)"/><path class="cls-12" d="M135.45,236.36c-2.82-8.57-4.55-12.86-10.36-20.54.59,3.51,1.13,7,1.54,10.56l0-.18s6.91,21.67,9.59,34.62C136,246.85,137.53,242.67,135.45,236.36Z" transform="translate(-25.16 -31.64)"/><path class="cls-13" d="M128.67,110.43c-1.3-.27-7.54-13.43-10.21-16-1.28,9-6.71,30.3-6.71,30.3,6.59,7.07,19.74,2.74,19.74,2.74C129.33,122.8,128.29,113.48,128.67,110.43Z" transform="translate(-25.16 -31.64)"/><path class="cls-11" d="M126.05,79.1S138.85,82,141.3,85.71s2.44,13.44,3.8,16c.82,1.55,1.55,2.81,2,3.72s-.55,1.27-1.66,1.66a1.94,1.94,0,0,0-1.19,1.24c-.76,2.35-2.87,8.34-5,9.17-2.64,1-15.67.64-19.59-10.71S117.86,76.67,126.05,79.1Z" transform="translate(-25.16 -31.64)"/><path class="cls-10" d="M113.71,120.29A161.15,161.15,0,0,0,131.27,127s10.33,20.39,11,26.08,6,44.48,6,44.48-20.45,13-50.09,2.69c0,0,7.11-30.56,5.49-42.63S103.49,129.24,113.71,120.29Z" transform="translate(-25.16 -31.64)"/><path class="cls-14" d="M110.12,203.24c-.34-13,2.63-24.77,2.9-37.77.21-10.49-4.11-16.47-9.39-22.9a61.31,61.31,0,0,0,.09,15c1.63,12.06-5.49,42.63-5.49,42.63A71.67,71.67,0,0,0,110.12,203.24Z" transform="translate(-25.16 -31.64)"/><path class="cls-6" d="M98.23,156.21c7.2-6,4.26-12,11.51-17.69l1.58-1.22c.37-3.13-7.17-1.51-5.09-4.67,2.91-4.42,15.14-11.1,14.87-15.4-.18-2.92-.25-1.13.3-4,.63-3.32,2-4-.58-6.39-1.83-1.71-3.36-3.54-1.91-6.12,1.18-2.09,3.07-2.71,4.71-.74.43.51,2.58,4.85,3.14,2.41.15-.68-.76-2-.84-2.76a3,3,0,0,1,.87-2.75c1.29-1.37,3.19-2.1,4.52-3.48,1.67-1.72,1.88-4,4.29-4.95a6.24,6.24,0,0,1,3.85-.16c.57.16,3,1.79,3.39,1.63,4.13-1.62,2.28-8-.55-10-5-3.47-11.45-6.05-17.59-5.93-7.49.15-14.34,5.95-18.69,11.56-3.15,4.07-2.94,8.39-5.21,12.77-2.07,4-6.55,6-9.23,9.58C89,111.24,89,115.63,90,119.61c.77,3.1,1.64,5.92,1.12,9.11-.63,4-3.81,6.88-4.89,10.71a16.92,16.92,0,0,0-.19,10.87C88,157.4,92.2,159.34,98.23,156.21Z" transform="translate(-25.16 -31.64)"/><path class="cls-11" d="M87.12,220.81a10.76,10.76,0,0,0,1.38,5.44,6.46,6.46,0,0,1,1.2,2.33,13.82,13.82,0,0,0,1.12,2.8,5.39,5.39,0,0,1,.82,2.86c-.17,1.24-1.43.26-2.18-.51s-1.35-4.45-2.58-4.58-.3,4.23-.11,5.09c.47,2,2,2.52,3.2,4,.72.84.8,1.44-.48,1.55-1,.08-1.71-.73-2.34-1.35a11.34,11.34,0,0,1-3-4.67,13.24,13.24,0,0,0,2.3,4.64c.6.79,3.73,3.7,2.57,4.75-2.32,2.1-7.09-6.29-7.2-8.05a15.54,15.54,0,0,0,2,4.82c.5.91,1.76,3-.09,2.87-2.73-.19-3.44-5.77-4.2-8.21a18.23,18.23,0,0,0,.92,4.88c.52,2.14-1.24,1.78-2.15-.33a24.84,24.84,0,0,1-.94-3.18c-1-4.35-.44-6.77,1-10.82.51-1.45-.09-4.65,1.07-5.31C81.74,218.53,85,220.24,87.12,220.81Z" transform="translate(-25.16 -31.64)"/><path class="cls-10" d="M88.65,220.94l-11.8.63s-.14-34.87,3-46.72,25.48-43.75,30.58-46.17c6.12-2.91,24.31,4.86,11,15.22s-26,35-26.49,36S88.65,220.94,88.65,220.94Z" transform="translate(-25.16 -31.64)"/></svg>