<svg id="Layer_1" data-name="Layer 1" xmlns="http://www.w3.org/2000/svg" viewBox="0 0 323.81 278.58"><defs><style>.cls-1{fill:#969696;}.cls-2{fill:#f14910;}.cls-3{fill:#fff;}.cls-4{fill:#f88667;}.cls-5{fill:#e45940;}.cls-6{fill:#020202;}.cls-7{fill:#fd425f;}.cls-8{fill:#e01f41;}</style></defs><title>chicocliente</title><rect class="cls-1" x="118.81" width="205" height="224.34"/><rect class="cls-2" x="132.59" y="15.88" width="177.43" height="192.58"/><path class="cls-3" d="M351.41,175.22a8.87,8.87,0,0,0-11.15-2.27s13.21-29.16,4.85-43.6a13,13,0,0,0-3-3.52c2.1-9.62-7.12-13.67-14.43-17.41a61,61,0,0,0-14.77-5.32c-9.55-2-20.3-1.56-29,3.23-9.7,5.36-19.45,16.29-29.54,13.81-2.09,4.9-1.79,8.93-.38,14.76a37.66,37.66,0,0,0,7.75,14.69,114.37,114.37,0,0,0,7.55,23.34,8.87,8.87,0,0,0-11.15,2.27c-5.07,5.83,8.36,20.52,11.4,22.3a63.81,63.81,0,0,0,11.21,21.71,49.32,49.32,0,0,0,11.49,10.09h-1s-2.83,26.74-8,35.79h41.19c-4.79-8.36-7.56-31.74-8-35.29a49.34,49.34,0,0,0,12.3-10.59A63.81,63.81,0,0,0,340,197.52C343.05,195.74,356.48,181,351.41,175.22Z" transform="translate(-81.41 -56.65)"/><path d="M296.78,185.06v-9.47A37.53,37.53,0,0,0,307,166.05a16.21,16.21,0,0,0,3.41-9.47,11.48,11.48,0,0,0-.09-1.38,3.1,3.1,0,0,0-1.25-2.54,5.31,5.31,0,0,0-2.63-.58,3.24,3.24,0,0,0-2.24.85,2.8,2.8,0,0,0-.95,2.23,9.41,9.41,0,0,0,.09,1.38,5.45,5.45,0,0,0,.17.83c.06.18.18.48.37.92l.45,1.08-14.18,2.77c-.09-.31-.24-.78-.45-1.44s-.35-1.09-.41-1.31l-.28-1a7,7,0,0,1-.24-1.15l-.11-1.1c0-.44-.06-.89-.06-1.37v-.28a15.34,15.34,0,0,1,.77-5,11.95,11.95,0,0,1,8.21-7.45,28.34,28.34,0,0,1,8.43-1.1q9.7,0,14.85,3.9t5.15,11a23,23,0,0,1-4.33,12.8,25.84,25.84,0,0,1-10.41,9.36v7.13Zm-.39,15.67v-12.2h15.3v12.2Z" transform="translate(-81.41 -56.65)"/><path class="cls-4" d="M100.26,166.4s4.78,8.51,2.45,11.07c0,0,6.41,5.83,11.42,3.38s2.1-4.65,2.1-4.65-3.5-1.53-5.25-8.87S100.26,166.4,100.26,166.4Z" transform="translate(-81.41 -56.65)"/><path class="cls-5" d="M105.32,179.38a10.53,10.53,0,0,1,8.63-5.26,17.81,17.81,0,0,1-3-6.79c-1.75-7.34-10.72-.93-10.72-.93s4.78,8.51,2.45,11.07A20,20,0,0,0,105.32,179.38Z" transform="translate(-81.41 -56.65)"/><path class="cls-4" d="M96.23,156.3s2.81-7.58,7.46-7.71,7.69.35,8.47,2.08,2.27,6.55,3.62,8.26,4.13,3.86,4.15,4.69-2.6,1.36-2.72,1.71-1,6.47-1.9,7.18-10.11-1.94-11.73-4.46S96.26,161,96.23,156.3Z" transform="translate(-81.41 -56.65)"/><path d="M105.74,156c1.24.84,4.3,1.68,9-1s1.53-13.69-8.65-11.91-9.38,5.39-11.19,6.38a7.18,7.18,0,0,0-3.83,4.38c-1.12,3.73-.82,8,4.4,11.82s8.44,2.8,8.44,2.8c.07-1.3-.25-3.44-1.43-4a7.22,7.22,0,0,1-1.79-.72,2,2,0,0,1,1.59-3.53c1.16.05,1.9,2,2.65,2.67s1.23.49,1.6.3c.72-.37,1-2.71-.84-4.94C104.48,156.8,104.49,155.16,105.74,156Z" transform="translate(-81.41 -56.65)"/><path d="M84.81,317.22s-4.2,8.24-3.26,9.94,18.53,9,20.63,8,2.21-4.08-1.16-6.5c-3.61-2.6-6-2.24-8.13-4.22s0-5.71,0-5.71Z" transform="translate(-81.41 -56.65)"/><path d="M132.41,319.52s.56,9.72,2.08,10.93,20.57,1.11,22.1-.67.57-4.25-3.31-5c-3.49-.7-6.06,0-8.76-1.05-2.37-1-3.65-6.2-3.65-6.2Z" transform="translate(-81.41 -56.65)"/><path d="M128.49,220.49,103.66,222s18.68,44.55,21.24,49.91,6.57,49.53,6.57,49.53l11.45-1.84s-2.41-45.2-3-48.92A456.13,456.13,0,0,0,128.49,220.49Z" transform="translate(-81.41 -56.65)"/><path class="cls-6" d="M120.07,238.81c.81-4.15,1.38-9.55,2.28-13.68.36-1.64,2.65-1.72,2.83-3.36a4.75,4.75,0,0,1-1-1L103.66,222s18.68,44.55,21.24,49.91c.25.53.61,1.4,1,2.51,0-.9,0-1.8-.11-2.69C125.3,264.52,119.15,243.53,120.07,238.81Z" transform="translate(-81.41 -56.65)"/><path d="M121.49,222.59H100.29a32.17,32.17,0,0,0-2.45,16.78c1.28,9.09-1.48,26.71-1.63,29S85.07,309,83.44,317.65l9.77,3.5s16.06-46.81,16.68-47.74S121.49,222.59,121.49,222.59Z" transform="translate(-81.41 -56.65)"/><path class="cls-4" d="M129.9,211.82s4.2,6.06,7.11,5.59,23.27-13.83,23.27-13.83L156,200.75s-16.2,11.07-17.83,10.6c-.86-.25-5.17-11.34-8.67-19.66-4.32-10.25-6.79-11.73-6.79-11.73Z" transform="translate(-81.41 -56.65)"/><path class="cls-5" d="M129.9,211.82s4.2,6.06,7.11,5.59,23.27-13.83,23.27-13.83L156,200.75s-16.2,11.07-17.83,10.6c-.79-.23-5.52-12.73-9-20.34-4.68-10.34-6.5-11-6.5-11Z" transform="translate(-81.41 -56.65)"/><path class="cls-7" d="M131.61,195.09s-1.74-3.89-2.33-5c-4.75-9.32-6.57-10.07-6.57-10.07l4.12,18.25C128.48,197.32,130.75,196.32,131.61,195.09Z" transform="translate(-81.41 -56.65)"/><path class="cls-8" d="M131.61,195.09s-1.74-3.89-2.33-5c-4.75-9.32-6.57-10.07-6.57-10.07l4.12,18.25C128.48,197.32,130.75,196.32,131.61,195.09Z" transform="translate(-81.41 -56.65)"/><path class="cls-7" d="M96.26,230.14s19,4.78,35.35-1.13c0,0-3.48-15.78-3.48-24.27,0-7.21-2.26-22.64-6-25.36a22.38,22.38,0,0,0-6.09-3.31s-1.28,3.15-4.2,3.84-8.54-3-8.54-3-11.49,4.49-13,7c-3.15,5.17,5.22,19.75,7.09,27.33S96.26,230.14,96.26,230.14Z" transform="translate(-81.41 -56.65)"/><path class="cls-8" d="M111.35,231.91c-.81-3.49-.89-7.08-1.29-10.76a26.77,26.77,0,0,1,.16-9l-.65-2.27c-1-3.46-.89-11.2-5-15.12-2.37-2.26-5.26-5.76-8.78-6.37-4.25-.73-2.18-.76-6-1.64.17,1.4-1.7,4.06-1.11,6,2.45,6.07,7.4,13.58,8.61,18.51,1.86,7.57-1.06,18.89-1.06,18.89A77.36,77.36,0,0,0,111.35,231.91Z" transform="translate(-81.41 -56.65)"/><path d="M225.77,215.11a47.21,47.21,0,1,0-65.21-28.77l-68.36,33a6.59,6.59,0,0,0-3.14,8.77l.06.12a6.59,6.59,0,0,0,8.77,3.14l68.36-33A47.18,47.18,0,0,0,225.77,215.11Zm-53-27.15a36.37,36.37,0,1,1,48.42,17.36A36.37,36.37,0,0,1,172.72,188Z" transform="translate(-81.41 -56.65)"/><path class="cls-4" d="M102,200.55s6.06,12.47,7.34,12.59,23.36-1.63,25-2.56a18.69,18.69,0,0,0,2.47-2.05,12.61,12.61,0,0,1,1.14-.9,13,13,0,0,0,1.43-.8c.34-.29,1.55-2.08,2.23-1.91s.5.54.4,1-.89,1.09-1.26,1.49c-.21.23-.85.87-.74,1.24s1.25-.37,1.49-.53a4.32,4.32,0,0,0,1-.88,14,14,0,0,0,.93-1.24c.18-.26.35-.53.52-.79.29-.44.55-.82.8-1.28s.49-.73.93-.5,0,1.07-.18,1.42a12,12,0,0,0-.54,1.12c-.11.26-.53.69-.38,1a6.09,6.09,0,0,0,1.21-1.38c.22-.3,1.35-2.15,1.87-1.79.82.57-.16,1.79-.54,2.3a5.48,5.48,0,0,1-.85.94c-.14.12-.75.77-.64.76.78-.08,1.34-1.26,1.82-1.81.3-.34,1.25-1.34,1.38-.35a1.55,1.55,0,0,1-.4,1.05A5.5,5.5,0,0,1,147.2,208a4.41,4.41,0,0,0-.79.89c.58,0,1.73-1.49,2.25-1.1.34.26,0,1-.22,1.18a18.69,18.69,0,0,1-5.13,3.45,53.9,53.9,0,0,1-5.88,2.73c-2.86,1.13-27.15,8.74-30.07,8.39s-10.6-15.24-12.82-19.56S102,200.55,102,200.55Z" transform="translate(-81.41 -56.65)"/><path class="cls-7" d="M93.74,207.31s7.69-2.85,12.12-6.84c0,0-7.29-22.81-14.62-17.6C82.89,188.81,93.74,207.31,93.74,207.31Z" transform="translate(-81.41 -56.65)"/><path class="cls-4" d="M156,202.12c.38-.25.91,0,1.57.6-.87-1.08-1.9-2.2-.88-2.35s1.67,1.38,2.38,1.85c-.38-.53-2.64-2.1-1.76-3.28.52-.7,2.94,2,3.44,2.59-.47-.44-2.5-2.59-1.42-3s2.37,1.44,3.06,2c.51.43,1.22.78,1.34,1.49.23,1.36-1.76,2.29-2.79,2.58a5.36,5.36,0,0,1-4.07-.68C156.2,203.5,155.66,202.37,156,202.12Z" transform="translate(-81.41 -56.65)"/></svg>