<svg id="Layer_1" data-name="Layer 1" xmlns="http://www.w3.org/2000/svg" viewBox="0 0 363.99 249.18"><defs><style>.cls-1{fill:#f14910;}.cls-2{fill:#fff;}.cls-3{fill:#a7a8af;}.cls-4{fill:#e45940;}.cls-5{fill:#fd425f;}.cls-6{fill:#e01f41;}.cls-7{fill:#f88667;}</style></defs><title>chicavideo</title><path class="cls-1" d="M314.43,346.49c-22.8-5.63-40.85-10.72-41.34-34.87-.26-12.5,5.32-21.12,18.5-28.05C302.25,278,307.73,276,310.18,265c3.92-17.7-4.62-35.16,6.53-52.28,12.44-19.1,40.51-10.39,53.47-27.71,11.62-15.54,18-35.68,42.57-35.39,20.68.24,29.11,21.84,20.26,36.82-5,8.43-13.7,14.37-17.24,23.4-3.37,8.61.33,15.66,3.65,23.52,7.33,17.38,9.11,35.3-10.84,46.78C396.66,287,387.47,293,391.77,305.87c4.51,13.53,6.54,21.25-9.89,31.43-12.28,7.61-23.48,7-37.58,7.58-13.22.55-30.88,4.17-43.36-1.55Z" transform="translate(-72.51 -112.92)"/><path class="cls-2" d="M321.83,334a17.09,17.09,0,0,1-3.86-6.8c-2.75-10.13,6.88-20.28,15.61-29.48,4.4-4.63,8.6-9.06,10.57-12.83,5.38-10.28,7-19.46,5.85-33.85-1.37-17.06,3.22-24,17.14-35.32,11.74-9.52,23.34-20,26.61-30.39a1.84,1.84,0,0,1,2.3-1,1.65,1.65,0,0,1,1.39,1.95c-3.49,11-15.51,21.86-27.62,31.63-13.48,10.85-17.66,17.15-16.39,33.38,1,12.26.26,22.88-6.15,35-2.11,4-6.44,8.55-11,13.28-8.44,8.83-17.76,18.58-15.3,27.65.95,3.5,3.57,6.71,8,9.81.73.53,1,1.33.51,1.82a1.76,1.76,0,0,1-2.18-.05A31.39,31.39,0,0,1,321.83,334Z" transform="translate(-72.51 -112.92)"/><path class="cls-2" d="M350.68,267.14a1.44,1.44,0,0,1-.4-.88c0-.76.7-1.29,1.64-1.19,8.25.9,14.34-5.53,20.9-12.47,5.81-6.14,11.92-12.58,20.28-14.34a2.24,2.24,0,0,1,2.4,1.06,1.25,1.25,0,0,1-1,1.78c-7.33,1.53-13.15,7.63-18.69,13.44-6.81,7.14-13.71,14.39-23.73,13.28A2.24,2.24,0,0,1,350.68,267.14Z" transform="translate(-72.51 -112.92)"/><path class="cls-2" d="M344.1,288.14a1.62,1.62,0,0,1-.3-.48,28.27,28.27,0,0,1-1.47-5.47,15.87,15.87,0,0,0-3.38-8.08,47.37,47.37,0,0,0-4.07-4.3C332,267,329,264.1,327.65,259.47c-1.92-6.62-1.79-14.86.39-24.57a48.45,48.45,0,0,1,1.75-5.27c1.07-2.91,3.09-8.35,2.42-9.56a1.22,1.22,0,0,1,.68-1.83,2,2,0,0,1,2.24.72c1.38,2.07.11,5.88-2.11,11.84a48.48,48.48,0,0,0-1.69,5c-1.46,6.45-2.72,15.69-.47,23.49,1.12,3.89,3.55,6.25,6.38,9a52,52,0,0,1,4.39,4.64,18.58,18.58,0,0,1,4,9.37,26,26,0,0,0,1.33,5,1.1,1.1,0,0,1-1.06,1.51A2.22,2.22,0,0,1,344.1,288.14Z" transform="translate(-72.51 -112.92)"/><path class="cls-1" d="M177.38,343.25c-25.24-4.58-48.87-2.64-59.09-30.27-8.08-21.87,10.76-42.47-8.21-57.5-11.41-9-29.42-14.47-33.4-29.92-4.15-16.1,16.46-26.31,12.75-41.76C86.37,171,68.65,170.18,73.27,153.55c4.1-14.75,17.08-18.47,27.39-15.52,13.79,3.94,14.93,16.56,24.09,25.32,6.11,5.85,14.76,0,23.73-1.11s20.36-.28,27.92,3.66c24.56,12.79,4.88,39.88,9.34,61.93,4.31,21.32,34.33,8.43,49.84,24.45,18.11,18.7,4.45,51-13.4,66.31C210.28,328.76,194.43,346.35,177.38,343.25Z" transform="translate(-72.51 -112.92)"/><path class="cls-2" d="M201.73,337.68a1.37,1.37,0,0,1-.4.16,1.59,1.59,0,0,1-1.89-1.07c-.17-.57-16.59-55.46-56.58-91.62-22.51-20.35-27.87-41.36-32-57.79-2.44-9.58-4.52-17.74-9.31-22.16a1.22,1.22,0,0,1,.1-1.61,1.06,1.06,0,0,1,1.5-.33c5.17,4.73,7.32,13.14,9.86,23,4.16,16.21,9.47,36.95,31.69,56.87,40.79,36.59,57.58,92.35,57.75,92.93A1.38,1.38,0,0,1,201.73,337.68Z" transform="translate(-72.51 -112.92)"/><path class="cls-2" d="M144.48,243.55a1.2,1.2,0,0,1-1.61-.06,1.31,1.31,0,0,1,.15-1.8c8.09-8,13.35-23.35,8.08-33-.62-1.14-1.35-2.36-2.1-3.63-3.59-6-8-13.34-5.69-20.48,1.12-3.5,3.76-6.66,7.81-9.43a1.11,1.11,0,0,1,1.67.23,1.49,1.49,0,0,1-.63,1.78c-3.5,2.37-5.62,4.86-6.53,7.69-1.94,6.09,2.2,13,5.58,18.61.78,1.29,1.52,2.54,2.16,3.7,6,11,.09,27.62-8.75,36.29Z" transform="translate(-72.51 -112.92)"/><path class="cls-2" d="M138.25,248.6c-4.25,3-8.41,4.42-12.4,4.17-6.19-.39-11.83-4.8-16.34-12.65-.44-.76-.93-1.67-1.46-2.66-3-5.54-7.41-13.78-12.84-14.53a6.87,6.87,0,0,0-5.3,1.74.9.9,0,0,1-1.4-.19,1.35,1.35,0,0,1,.41-1.61h0a9.06,9.06,0,0,1,6.89-2.25c6.29.85,11,9.56,14.18,15.43.53,1,1,1.86,1.44,2.61,4.2,7.26,9.31,11.32,14.81,11.64,4.8.28,10-2.28,15.32-7.64a1.21,1.21,0,0,1,1.76-.09,1.31,1.31,0,0,1-.13,1.81A40.11,40.11,0,0,1,138.25,248.6Z" transform="translate(-72.51 -112.92)"/><path class="cls-2" d="M199,311.16a14.71,14.71,0,0,1-5.17,2,1.48,1.48,0,0,1-1.72-1.15,1.42,1.42,0,0,1,1.21-1.65c9.66-1.68,16-17.17,16.86-25.35.34-3.4-.83-7.6-2.06-12-2.17-7.81-4.39-15.81,1.12-21.61a1.6,1.6,0,0,1,2.18-.24,1.32,1.32,0,0,1,.06,2c-4.38,4.6-2.34,11.87-.36,19,1.31,4.69,2.56,9.14,2.17,13.06C212.58,292.48,207.71,305.91,199,311.16Z" transform="translate(-72.51 -112.92)"/><path class="cls-2" d="M187.5,317.45a17.31,17.31,0,0,1-5.3,2.06c-10.75,2.34-24.42-3.81-30.85-8.37-3.37-2.39-6.33-6.9-9.43-11.61-4.83-7.35-9.72-14.79-15.89-13.85a1.12,1.12,0,0,1-1.28-1.07,1.36,1.36,0,0,1,1.1-1.43C133.45,282,139,290.42,144,298c3,4.52,5.84,8.83,8.83,10.93,5.83,4.1,18.91,10,28.68,7.83a12.79,12.79,0,0,0,8.69-6.18,1.54,1.54,0,0,1,2-.56,1.39,1.39,0,0,1,.58,1.93A15.3,15.3,0,0,1,187.5,317.45Z" transform="translate(-72.51 -112.92)"/><rect x="65.45" y="91.1" width="235.75" height="158.07" rx="5.47" ry="5.47"/><rect class="cls-2" x="76.31" y="101.58" width="203.24" height="135.49"/><circle class="cls-2" cx="289.61" cy="170.14" r="4.26"/><rect class="cls-3" x="116.4" y="128.5" width="123.12" height="83.28" rx="5.6" ry="5.6"/><rect class="cls-1" x="122" y="135.13" width="111.92" height="70.02"/><polygon points="157.18 148.07 157.18 194.11 202 171.09 157.18 148.07"/><path d="M252.41,203.18S224,203,214,196.74s-11.73-31.34,2.77-41.57S234.27,141.79,234.9,135s.49-22.06,19.28-22.12c18.43-.06,16.84,14.21,18.24,23.3,1,6.32,10.18,15.66,18.23,21.49C301,165.18,312.57,209.48,252.41,203.18Z" transform="translate(-72.51 -112.92)"/><path class="cls-4" d="M249.13,130.54l6.18.18,6.18.18s1.25,16,4.42,18c0,0,3.36,18.94-11.82,18.49-18.36-.55-10.57-19.16-10.57-19.16C246.82,146.42,249.13,130.54,249.13,130.54Z" transform="translate(-72.51 -112.92)"/><path class="cls-5" d="M228.45,203.91h49.9l4.19-15.29c.66-15.5.89-31.33.89-31.33-7.14-5.45-18.6-9.36-18.6-9.36-6,4.31-15.16,4.7-20.91,0,0,0-11.34,4.4-18.79,9.36a62.92,62.92,0,0,0-.76,16.89A239.17,239.17,0,0,0,228.45,203.91Z" transform="translate(-72.51 -112.92)"/><path class="cls-5" d="M301.18,203.91c-3.82-18.17-7.36-29.69-10.5-36.53-4.09-8.93-7.26-10.1-7.26-10.1-3.64-.31-6.41,28.6-12.66,46.63Z" transform="translate(-72.51 -112.92)"/><path class="cls-6" d="M278.16,177.66c-1,2.55-2.73,4.62-4.43,6.91-1.54,2.08-5.78,13.57-22.38,12.48-6.86-.45-13.21-6.87-16-13.37a41.67,41.67,0,0,1-2.32-8.09c-.44-2-.58-4.65-1.69-6.43-2.07.5-2.3,3.43-3,5.13-.45,1-3.45,5-3.69,2a239.09,239.09,0,0,0,3.88,27.59h53.63C281.06,193.26,278.07,180.91,278.16,177.66Z" transform="translate(-72.51 -112.92)"/><path class="cls-7" d="M269.06,133.36c-1.78-1.81-3.74,1.08-3.74,1.08a43.58,43.58,0,0,0,.93-6.89c-4.1-2.15-8.24-4.65-12.12-5.78v0h-.07v0c-3.88,1.13-8,3.63-12.12,5.78a43.55,43.55,0,0,0,.93,6.89s-2-2.9-3.74-1.08,2.61,6.65,3.62,7.25c0,0,3.61,8.33,8.17,11.1a8.35,8.35,0,0,0,6.55-.16c4.55-2.78,8-10.94,8-10.94C266.45,140,270.84,135.18,269.06,133.36Z" transform="translate(-72.51 -112.92)"/><path d="M266.23,124.58S260,135,244.57,134c0,0,.76,1.24-.16,3.47,0,0-1.11-4.11-3.5-2.83-1.25.67-1.28,2.37,0,4.17.59.81-3.79-.68-3.79-.68s-1.8-15.86,9.31-19.46S266.23,124.58,266.23,124.58Z" transform="translate(-72.51 -112.92)"/><path class="cls-1" d="M261.08,119.13a11.91,11.91,0,0,0-.23,2.27c0,1.62-2.44,2.77-2.51,4.38.34.35.68.73,1,1.13a14.38,14.38,0,0,1,3.71,6.93c.2.85-.3,1.46,1.11,3.78,0,0,1.07-4.13,3.74-3.51.52.12,1.56.87.65,2.92-.33.75,2.76-3.07,2.76-3.07S271.21,118.81,261.08,119.13Z" transform="translate(-72.51 -112.92)"/><path class="cls-7" d="M238.37,279.84c.59,1.35,3.66,3.41,2.57,5.23-.55.92-3.32-1-3.93-1.81-.86-1.12-6.83-10.38-7.77-13.05-.73-2.09-1.42-4.13-2.25-6a30.24,30.24,0,0,0,6-4.78c3,1.4,6.29,3.35,9.29,4.67,1.61.7,3.37,1.2,5,1.8,1,.38,3.23.94,3.33,2.33s-2.11,1.07-3,.89c-1.26-.25-3.58-1.46-4.47,0-1.3,2.1,2.63,4.54,4,6s5.71,5.42,2.43,5.75c-.69.07-5.35-3.94-6.08-4.47.15.19,3.14,3.08,3.29,3.28.77,1,3,3.21,2.34,4.28-1.43,2.29-6.35-3.75-7.1-4.56l1.87,2.38c1.6,1.81,2.6,3.34,1.25,3.91C243.38,286.32,239.85,281.36,238.37,279.84Z" transform="translate(-72.51 -112.92)"/><path class="cls-5" d="M238.84,261.93l-10.2,6.79S196.52,227.11,200,211.4c4.13-18.59,14.91-39.37,20.85-49a17.54,17.54,0,0,1,4.27-5.09c6.13,5.89,9.63,14.12,8.84,21.51-.35,3.3-2,5.45-3.72,8.81-5.42,10.29-12,28.12-11.83,29.93C218.78,220.44,238.84,261.93,238.84,261.93Z" transform="translate(-72.51 -112.92)"/></svg>