<svg id="Layer_1" data-name="Layer 1" xmlns="http://www.w3.org/2000/svg" viewBox="0 0 406.11 295.06"><defs><style>.cls-1{fill:#f14910;}.cls-2{fill:#fff;}.cls-3{fill:#52535b;}.cls-4{fill:#e45940;}.cls-5{fill:#f88667;}.cls-6{fill:#e5e6ed;}.cls-7{fill:#3f4849;}.cls-8{fill:#262a2b;}.cls-9{fill:#fd425f;}.cls-10{fill:#e01f41;}.cls-11{fill:#0c0c0c;}</style></defs><title>chicosbrand</title><path class="cls-1" d="M394.06,331c-8.62-9.73-34.07-22.95-27.39-38.12,5.69-12.9,33-11.31,29.7-26.86-1.94-9.2-4.47-17.05,1.47-27.51,6.47-11.39,25.81-5.19,32.51-15.77,5.76-9.09-1.73-23.13,10.17-29.2,10.56-5.39,23.32,5.14,25.23,14.47,2.38,11.67-9.17,17.15-10.66,27.31-.94,6.47,4.94,8.72,8.32,13.25,3.23,4.33,6.13,10.57,6.35,15.94.64,16.13-17,18.22-25.42,28.48-7.76,9.5,6.55,15.62,4.41,26-2.32,11.15-18.19,17.24-29.36,17.07C411.64,335.87,399.4,337,394.06,331Z" transform="translate(-63.67 -80.45)"/><path class="cls-2" d="M405.31,336.3a.77.77,0,0,1-.2-.06.58.58,0,0,1-.27-.88c.15-.23,15.94-24,16.85-53.8.6-19.89,8.87-32.61,15.65-43.05,4.1-6.3,7.66-11.8,8.21-17.32a.89.89,0,0,1,.92-.78.77.77,0,0,1,.76.85c-.6,5.9-4.28,11.55-8.49,18-6.68,10.26-14.83,22.77-15.45,42.25-1,30.2-17,54.2-17.14,54.44A.85.85,0,0,1,405.31,336.3Z" transform="translate(-63.67 -80.45)"/><path class="cls-2" d="M423,281.64a.7.7,0,0,1-.59-.76.82.82,0,0,1,.88-.68c6.69.4,15.62-3.51,18.32-10,.32-.78.65-1.65,1-2.56,1.63-4.38,3.69-9.87,8-11.85a9.48,9.48,0,0,1,7.2-.05.7.7,0,0,1,.42,1,.9.9,0,0,1-1.07.46,7.68,7.68,0,0,0-5.9,0c-3.64,1.68-5.57,6.81-7.1,10.9-.35.93-.68,1.81-1,2.61-3.08,7.39-12.75,11.45-20,11Z" transform="translate(-63.67 -80.45)"/><path class="cls-2" d="M418.3,280.88a11.83,11.83,0,0,1-7-4.07c-2.48-3.19-2.87-8-1.09-13.93.18-.59.4-1.27.65-2,1.39-4.24,3.52-10.72,1.43-14.32a5.11,5.11,0,0,0-3.39-2.37.77.77,0,0,1-.57-1,.87.87,0,0,1,1-.56h0a6.73,6.73,0,0,1,4.39,3.11c2.42,4.16.16,11-1.33,15.49-.24.73-.46,1.4-.63,2-1.65,5.49-1.35,9.87.85,12.7,1.87,2.41,5.16,3.75,9.73,4a.71.71,0,0,1,.72.77.83.83,0,0,1-.88.69A23.34,23.34,0,0,1,418.3,280.88Z" transform="translate(-63.67 -80.45)"/><path class="cls-2" d="M414.49,326.9a7.59,7.59,0,0,1-2.57-.94.6.6,0,0,1-.16-.92.85.85,0,0,1,1.08-.18c4,2.41,12.14-.72,15.61-3.16a20.76,20.76,0,0,0,4.11-4.67c2.46-3.36,5-6.86,9.07-7a.65.65,0,0,1,.75.66.79.79,0,0,1-.79.7c-3.19.09-5.51,3.26-7.74,6.29a21.73,21.73,0,0,1-4.48,5C426.26,324.91,419.47,327.81,414.49,326.9Z" transform="translate(-63.67 -80.45)"/><path class="cls-2" d="M407.94,325.44a9.58,9.58,0,0,1-2.77-1c-5-2.68-8-9.55-8.81-13.54-.42-2.15.23-5,.91-8,1.09-4.83,2.23-9.86-.91-12.16a.67.67,0,0,1-.1-1,.88.88,0,0,1,1.13-.11c3.86,2.83,2.56,8.54,1.42,13.52-.66,2.89-1.28,5.6-.91,7.5.7,3.62,3.52,10.22,8.1,12.66a7.58,7.58,0,0,0,5.62.67.77.77,0,0,1,.94.45.69.69,0,0,1-.55.83A9.45,9.45,0,0,1,407.94,325.44Z" transform="translate(-63.67 -80.45)"/><path class="cls-3" d="M137.57,330.63c-12.88,8.71-23.28,15.14-37.16,2.12-7-6.57-9.52-13.93-8.13-24.17,1.12-8.26,2.22-12-2.81-18.82-7.91-10.72-20.2-14.9-24.76-28.5-5-14.91,9.77-24.91,5.77-39.09-3.53-12.53-11.18-24.18-2.15-36.3,7.67-10.3,21.88-5.73,26.4,5.09,2.57,6.17,2.4,13.23,5.88,19,3.35,5.57,8.64,6.82,14.29,8.66,12.73,4.14,23.84,11.6,22.39,27.73-.87,9.69-1.12,17.55,8.34,21.77,10.14,4.53,15.79,7.45,15.06,21.69-.54,10.7-5.75,16.36-11.43,24.19C144,321.3,138.69,332.59,130,335.9Z" transform="translate(-63.67 -80.45)"/><path class="cls-2" d="M139.19,325.46a15,15,0,0,1-6.15-1.87c-7.69-4.42-9.79-15.68-11.67-25.79-.94-5.06-1.84-9.87-3.3-13.06-4-8.61-8.83-14.44-17.89-21.4-10.5-8.06-12.6-14.1-13.29-27.34-.59-11.08-1.76-22.45-6.25-29.12a1.3,1.3,0,0,1,.39-1.71,1.12,1.12,0,0,1,1.64.14c4.78,7.1,6,18.88,6.57,30.31.64,12.81,2.53,18.29,12.55,26,7.73,5.92,13.86,12,18.54,22.2,1.57,3.41,2.48,8.35,3.44,13.54,1.8,9.75,3.8,20.62,10.7,24.58,2.69,1.54,6,2,10.06,1.29a1.21,1.21,0,0,1,1.43.8,1.11,1.11,0,0,1-1,1.21A22.79,22.79,0,0,1,139.19,325.46Z" transform="translate(-63.67 -80.45)"/><path class="cls-2" d="M110.1,271.5a1.16,1.16,0,0,1-.7-.25,1,1,0,0,1,0-1.55c4.1-4.11,2.83-10.91,1.47-18.19-1.19-6.41-2.44-13.1.07-18.66a1.46,1.46,0,0,1,1.66-.82,1,1,0,0,1,.63,1.48c-2.22,4.88-1,11.25.08,17.35,1.39,7.54,2.82,15.24-2.19,20.24A1.4,1.4,0,0,1,110.1,271.5Z" transform="translate(-63.67 -80.45)"/><path class="cls-2" d="M120.07,286.59a1.29,1.29,0,0,1-.43-.1,25.44,25.44,0,0,1-4-2.19,13.3,13.3,0,0,0-6.38-2.53,33,33,0,0,0-4.33-.07c-2.92.06-5.9.16-9.19-1.59-4.67-2.48-9.37-6.89-14-13.12-.64-.86-1.42-2.22-2.26-3.66-1.2-2.06-3.42-5.91-4.37-6.16a1,1,0,0,1-.74-1.29,1.18,1.18,0,0,1,1.31-.84c1.71.3,3.33,2.91,5.78,7.15.8,1.39,1.57,2.71,2.14,3.48,3.07,4.14,7.88,9.67,13.38,12.58,2.77,1.47,5.2,1.4,8,1.31a36.11,36.11,0,0,1,4.68.08,15.56,15.56,0,0,1,7.44,2.87,23.39,23.39,0,0,0,3.69,2,1,1,0,0,1,.47,1.43A1.38,1.38,0,0,1,120.07,286.59Z" transform="translate(-63.67 -80.45)"/><path class="cls-4" d="M208.35,117c1.36,2.08,2.69,6.1,5,7.42,2.88,1.69,7.32,1.55,10.48,1.47-1.9-4.13-2.39-13.61,1.75-17.27-2.73-1.67-2.85,3.74-4.9,1.51-.75-.81-6.5-9.72-7-10.73-1.59,1.89-.94,8.37-2.49,13.63a6.15,6.15,0,0,1-2.81,3.87Z" transform="translate(-63.67 -80.45)"/><path class="cls-5" d="M221.77,86.21s14.54,1.63,15.28,5.63-1.76,8.9-1.84,11.49,2.14,6.29,2.11,7.33-3.24,1.69-3.88,2.24-5,7.32-7.95,8-13.69-8.85-14.28-15.79c-.11-1.33-1.93-3.93-1.59-5.49C211,93,218.33,86.54,221.77,86.21Z" transform="translate(-63.67 -80.45)"/><path d="M218.81,81.41c-6-.94-2.35,2.36-9,5.06-4.85,2-3.84,7.11-2.37,9.43.59.93.31,1.86-.59,3.45-.51,3.32,5.19,10.68,7,8.43.42-.54-1.19-4-1.08-5.44-.36-2.42,1.79-4.88,3.86-2.71a4.06,4.06,0,0,1,1.34,2.67c-.08,2.86.83,3.61,2.07,2.67,1.86-1.42-.27-7.16,1.16-8.38a13.94,13.94,0,0,0,4.18-6.11C227.93,87.57,224.83,82.35,218.81,81.41Z" transform="translate(-63.67 -80.45)"/><rect class="cls-6" x="67.53" y="106.63" width="268.17" height="171.43"/><rect x="82.89" y="138.57" width="12.79" height="107.56"/><rect x="100.48" y="138.57" width="6.27" height="107.56"/><rect x="118.77" y="138.57" width="12.99" height="107.56"/><rect x="138.93" y="138.57" width="4.86" height="107.56"/><rect x="159.9" y="138.57" width="4.17" height="107.56"/><rect x="110.7" y="138.57" width="4.17" height="107.56"/><rect x="149.16" y="138.57" width="6.3" height="107.56"/><rect x="171.94" y="138.57" width="9.98" height="107.56"/><rect x="186.52" y="138.57" width="6.27" height="107.56"/><rect x="198.48" y="138.57" width="3.13" height="107.56"/><rect x="223.43" y="138.57" width="2.18" height="107.56"/><rect x="207.25" y="138.57" width="5.31" height="107.56"/><rect x="238.05" y="138.57" width="2.66" height="107.56"/><rect x="269.04" y="138.57" width="3.68" height="107.56"/><rect x="304.61" y="138.57" width="3.68" height="107.56"/><rect x="243.14" y="138.57" width="2.05" height="107.56"/><rect x="264.18" y="138.57" width="1.6" height="107.56"/><rect x="298.77" y="138.57" width="2.4" height="107.56"/><rect x="214.73" y="138.57" width="5.31" height="107.56"/><rect x="229.64" y="138.57" width="5.76" height="107.56"/><rect x="258.43" y="138.57" width="4.5" height="107.56"/><rect x="248.7" y="138.57" width="7.04" height="107.56"/><rect x="275.7" y="138.57" width="9.85" height="107.56"/><rect x="290.15" y="138.57" width="5.89" height="107.56"/><rect x="313.18" y="138.57" width="7.8" height="107.56"/><path d="M236.84,133.48s1.07.95,2.14,5.51c3.62,15.44,7.15,36.65,8.73,41.14,1.91,5.42,15.37,33.34,15.37,33.34l-11,7.7s-16-30.66-18-35.85-12.22-31.4-12.22-31.4Z" transform="translate(-63.67 -80.45)"/><path class="cls-7" d="M241.42,185.55c-5.31-9.67-9.5-26.36-11.39-37.56l-8.15,5.93s10.18,26.21,12.22,31.4,18,35.85,18,35.85l2.75-1.92C250.32,207,247.71,197,241.42,185.55Z" transform="translate(-63.67 -80.45)"/><path d="M185.41,150.16c-3.73,8.84-9.9,33.05-12,37H226.2c3-11,6.51-24.48,7.8-30.69,3-14.28,2.79-23.09,2.79-23.09s-7.88-6.85-14-11c0,0-6.6,6.24-14.21-5.79,0,0-17.44,4.74-21.22,6.1C185.87,123.24,189.56,140.31,185.41,150.16Z" transform="translate(-63.67 -80.45)"/><path class="cls-8" d="M192.6,136.37c-2.66,4.74-5.91,10-8.15,14.25-3.6,9.11-8.44,32.66-10.53,36.51H196.7c-.12-1.8-.9-4.77-.9-6.79,0-5.7.36-11.18,2.66-16.52,2.08-4.82-.57-20.89-1.5-22C195.43,140,194,138.21,192.6,136.37Z" transform="translate(-63.67 -80.45)"/><path class="cls-9" d="M384.66,181.62c-35.85,17.12-27.36,14.31-33.18,15.86s-40.13,3.71-40.13,3.71l-3.79,14.73s41.8-2.29,47.5-3.6,29.68-10.41,29.68-10.41Z" transform="translate(-63.67 -80.45)"/><path class="cls-10" d="M326.92,202.12a6,6,0,0,0,5.62,3A145.62,145.62,0,0,0,349.49,204a45.75,45.75,0,0,0,9.62-1.83,118.73,118.73,0,0,0,16.5-6.1c2.81-1.34,6.09-1.92,9.1-2.94l0,8.77s-24,9.1-29.68,10.41-47.5,3.6-47.5,3.6l3.75-14.57C316.4,201.84,321.66,202.1,326.92,202.12Z" transform="translate(-63.67 -80.45)"/><path class="cls-11" d="M389.57,355.14a30.18,30.18,0,0,1,1.54,7.87c0,3.43-.23,7.07-1.28,7.94-2.1,1.72-28.71,1.95-30.87-.51s-.72-6.43,4.91-7.81c6-1.47,6.88-.84,10.69-2.29s2.88-5.72,2.88-5.72Z" transform="translate(-63.67 -80.45)"/><path d="M447.92,350.15a30.16,30.16,0,0,1,4.24,6.8c1.24,3.2,2.3,6.69,1.63,7.87-1.35,2.36-26.13,12-29,10.52s-3-5.75,1.81-9c5.12-3.53,6.13-3.24,9.17-5.95s.66-6.37.66-6.37Z" transform="translate(-63.67 -80.45)"/><path d="M389.74,242.08l35.85,4s-32.06,51.25-34.48,59.48.89,53,.89,53H375.77s-3.48-52.84-2.69-56.82S389.74,242.08,389.74,242.08Z" transform="translate(-63.67 -80.45)"/><path d="M391.11,244.73H432s4.78,12.55,2.59,22.1-3.65,29.87-3.45,33.46,20.18,51.38,20.18,51.38l-14.9,5.54s-20.55-45.57-22.54-50.75S391.11,244.73,391.11,244.73Z" transform="translate(-63.67 -80.45)"/><path class="cls-5" d="M392.84,160.08a36.41,36.41,0,0,0,9.88-.78,14.72,14.72,0,0,0,3.36-1.18c.35,4.11,1.5,13.71,4.91,17.32,0,0-.46,4.85-9,6s-10.25-5.11-10.25-5.11S393.41,166.13,392.84,160.08Z" transform="translate(-63.67 -80.45)"/><path class="cls-4" d="M411,175.59c0,.09,0,.2-.09.35v0a4.89,4.89,0,0,1-.2.53v0a5.87,5.87,0,0,1-.36.66l-.06.09a7,7,0,0,1-1.38,1.53l-.1.09a9.13,9.13,0,0,1-1.08.75l-.16.09a11.39,11.39,0,0,1-1.43.69,12.09,12.09,0,0,0-3.26-5.73,15.15,15.15,0,0,0-10.28-4.38,58.2,58.2,0,0,0,.3-10.25,36.41,36.41,0,0,0,9.88-.78,14.72,14.72,0,0,0,3.36-1.18c.35,4.11,1.5,13.71,4.91,17.32l0,.11Z" transform="translate(-63.67 -80.45)"/><path class="cls-5" d="M406.63,135.62s-14.23-3.5-16.32,0-1.42,9-2.24,11.44-4.19,5.17-4.52,6.16,2.46,2.71,2.87,3.45,2.19,8.62,4.71,10.27,15.38-3.61,18.34-9.94S410.49,137.48,406.63,135.62Z" transform="translate(-63.67 -80.45)"/><path class="cls-9" d="M391.77,174.93s10,5,18.11-1c0,0,15.45,2.7,17.34,3.47,1.57.64-2.56,22.63-.77,33.68s9,37.84,9,37.84-18.92,14.54-51.38,5.38c0,0-1.06-37.56-.71-48,.51-15.27.61-24.29.61-24.29A93.89,93.89,0,0,1,391.77,174.93Z" transform="translate(-63.67 -80.45)"/><path class="cls-10" d="M415.41,235.71c1.41-5.8,2.41-11.47,1.39-17.48-1.1-6.5,3.56-15.07,4.43-21.69.93-7.08,1.66-11.88,6.31-15.8-.31,6.67-2.47,21.77-1.08,30.34,1.79,11.05,9,37.84,9,37.84s-12,9.17-33.27,8.31C410.52,252.17,413.06,245.34,415.41,235.71Z" transform="translate(-63.67 -80.45)"/><path d="M400.51,137.63a14,14,0,0,0,1.81,7.19c.92,1.64-3.07,6.3-1.81,8.28.84,1.32,2,.92,2.87-1.8a4.07,4.07,0,0,1,2.18-2c3.37-1.64,4.41,3.56,1.4,5.25-2.11,1.19-.57,6.59-.57,6.59,2.4,1.68,10-.82,8.86-6.38-.7-3.53-1-4.88.21-5.8,2.19-1.67,4.92-6.16,1-9.69-5.35-4.86-.76-6.69-6.74-7.88S399,134,400.51,137.63Z" transform="translate(-63.67 -80.45)"/><path d="M410.85,134.15c-.39-1.28-2.8-2.83-4-3.64a17.05,17.05,0,0,0-6.18-2.46,15.66,15.66,0,0,0-6.76.08c-1.9.46-3.47,1.38-5.43,1.7s-3.62.29-4.94-.73a12.53,12.53,0,0,0,0,4.45,13.88,13.88,0,0,0,2.75,4.77c3,4.12,10.9,6.12,16.26,3.62,2.59-1.21,4.92-2.25,6.11-4.61A13.77,13.77,0,0,1,410.85,134.15Z" transform="translate(-63.67 -80.45)"/><path class="cls-2" d="M184.61,268.32a15,15,0,0,1-3.52-1.19c-.49-.23-1-.45-1.44-.67a15.22,15.22,0,0,1-5.52-3.57c-3-3.37-3.64-6.81-2.13-11.88a16.87,16.87,0,0,1,9.3-10.34,18.38,18.38,0,0,1,6.05-1.49l.64-.08c2.78-.36,5-2.26,7.21-4.09l.36-.31c.91-.76,1.72-1.54,2.58-2.37.59-.57,1.18-1.14,1.81-1.7,8.38-7.54,20.36-6.16,28.94-3.66l-.49,1.67c-8.15-2.36-19.51-3.72-27.29,3.28-.61.55-1.19,1.11-1.77,1.66-.84.81-1.71,1.65-2.67,2.45l-.36.3c-2.26,1.9-4.82,4.06-8.11,4.49l-.65.08a16.82,16.82,0,0,0-5.53,1.34,15.15,15.15,0,0,0-8.37,9.27c-1.35,4.52-.87,7.29,1.76,10.21a13.68,13.68,0,0,0,4.95,3.15l1.48.68c3.34,1.62,6.62,1.48,10.1,1.33a37.6,37.6,0,0,1,6.28.09c4.67.57,8.87-.73,13.24-4.11l.31-.24c5.64-4.36,10.09-7.8,17.18-9.82l1-.29c5.21-1.48,8.66-2.45,11.65-7.07s3.74-10.06,2.05-13.58c-1.14-2.38-3.33-3.74-6.49-4.07l.18-1.73c4.75.49,6.91,3,7.88,5.05,2.26,4.72.47,11.23-2.16,15.28-3.35,5.17-7.45,6.33-12.64,7.8l-1,.29c-6.77,1.94-11.1,5.29-16.6,9.53l-.31.24c-4.76,3.67-9.37,5.09-14.52,4.46a36.29,36.29,0,0,0-6-.08A29.68,29.68,0,0,1,184.61,268.32Z" transform="translate(-63.67 -80.45)"/><path class="cls-1" d="M392.56,219.55,264.31,193a18.55,18.55,0,0,0-11.17,1.15L230,204.17a18.56,18.56,0,0,0-10.77,13.25l-1.65,7.94a18.56,18.56,0,0,0,4.61,16.44l17.22,18.43a18.55,18.55,0,0,0,9.79,5.5l128.25,26.59a18.55,18.55,0,0,0,21.94-14.4L407,241.49A18.55,18.55,0,0,0,392.56,219.55ZM253.69,237.9c-12.5,4.75-21.78-9.39-12.45-19a6.5,6.5,0,0,1,2.33-1.53c12.5-4.75,21.78,9.39,12.45,19A6.5,6.5,0,0,1,253.69,237.9Z" transform="translate(-63.67 -80.45)"/><path class="cls-2" d="M273.33,248.59l9.47-29.67,7.65,1.59a20.6,20.6,0,0,1,2.95.82,9.42,9.42,0,0,1,2.31,1.24,5.15,5.15,0,0,1,1.57,1.78,5.54,5.54,0,0,1,.55,2.47,8.57,8.57,0,0,1-.19,1.83,12.23,12.23,0,0,1-.39,1.43q-1.78,5.35-6.38,5.12,4.5,1.76,3.4,7.06c-.09.43-.21.86-.35,1.32q-1.36,4.35-4.32,6.06a10.05,10.05,0,0,1-7.26.81Zm7.39-2.91,1.74.36a4.53,4.53,0,0,0,3.61-.41,6.3,6.3,0,0,0,2-3.33,11.2,11.2,0,0,0,.32-1.19,4.41,4.41,0,0,0-.12-2.75q-.62-1.33-3-1.83l-1.56-.32ZM285,232.17l1.52.32a4.48,4.48,0,0,0,3.49-.34,5.72,5.72,0,0,0,1.89-3.07c.08-.25.14-.49.19-.72a2.73,2.73,0,0,0-.38-2.41,5.77,5.77,0,0,0-3.27-1.52l-.9-.19Z" transform="translate(-63.67 -80.45)"/><path class="cls-2" d="M294.69,253l9.47-29.67,7.56,1.57a22,22,0,0,1,3.32.93,9.7,9.7,0,0,1,2.47,1.34,5.38,5.38,0,0,1,1.6,1.86,5.54,5.54,0,0,1,.55,2.52,8.2,8.2,0,0,1-.22,1.88q-.14.68-.37,1.39a11.46,11.46,0,0,1-2.38,4.41,7,7,0,0,1-3.83,2.09l-.14,15.42-6-1.25.54-14.2-2.19-.45-4.29,13.42Zm11.49-15.78,1.5.31a4.69,4.69,0,0,0,3.55-.35,5.61,5.61,0,0,0,2-3.13c.12-.37.21-.72.27-1.05a3.84,3.84,0,0,0-.06-2.36q-.52-1.18-2.67-1.64l-1.85-.38Z" transform="translate(-63.67 -80.45)"/><path class="cls-2" d="M314.48,257.12l15.45-28.43,6.58,1.37L333,261l-5.62-1.16,1-6.86-4.88-1-3.25,6.38Zm10.75-8.78,3.7.77,2-12.26Z" transform="translate(-63.67 -80.45)"/><path class="cls-2" d="M336,261.58l9.47-29.67,4.23.88,1.87,17.08,5-15.66,5,1-9.47,29.67-4-.83L346.46,246l-5.32,16.62Z" transform="translate(-63.67 -80.45)"/><path class="cls-2" d="M356.62,265.86l9.47-29.67,7.32,1.52a17.46,17.46,0,0,1,4.59,1.52,5.88,5.88,0,0,1,2.5,2.33,6.09,6.09,0,0,1,.7,3.19,12.76,12.76,0,0,1-.27,2,23.44,23.44,0,0,1-.6,2.28l-3.42,10.7a16.13,16.13,0,0,1-2.63,5.31,7.27,7.27,0,0,1-4,2.49,14.17,14.17,0,0,1-6.16-.15ZM364,263l1.32.27a6.77,6.77,0,0,0,1.35.16,5,5,0,0,0,1-.09,1.85,1.85,0,0,0,.82-.41,5.44,5.44,0,0,0,.63-.62,4,4,0,0,0,.53-.92c.18-.41.33-.78.45-1.1s.27-.78.46-1.38l3.74-11.7a17,17,0,0,0,.48-1.75c.06-.34.1-.65.14-.93a1.9,1.9,0,0,0-.54-1.66,4.87,4.87,0,0,0-2.31-1l-1.28-.26Z" transform="translate(-63.67 -80.45)"/><path class="cls-2" d="M246.15,234.21a7.53,7.53,0,0,1-1.64.73,17.15,17.15,0,0,1-2.85,10.5,16.92,16.92,0,0,1-5.8,5,30.5,30.5,0,0,1-4.16,1.61c.36.47.71,1,1.07,1.44a31.55,31.55,0,0,0,3.78-1.49,17.39,17.39,0,0,0,9.6-17.79Z" transform="translate(-63.67 -80.45)"/><path class="cls-5" d="M301,199.42c2.05-2.67,6.39-2.54,9.06-1.41,2.16.91,2.28,3.26,2.59,6.69.21,2.32.31,4.51-.31,5.21-2.76,2-2.84-5.72-3.3-7.68,0,0,1.06,8.18-.38,8.88-2.7,1.24-2.6-6.33-2.9-8.21.5,1.79.56,5.11.19,5.6,0,1.46-1.13,1.18-1.4,1-1.38-.83-1.37-7-1.37-7,0,1.1.85,5.14-.93,4.32-1.16-.54-1.22-2.29-1.44-3.23C300.36,201.78,300.52,200,301,199.42Z" transform="translate(-63.67 -80.45)"/><path class="cls-5" d="M418.78,235.39c-2.81-.11-6.23.42-9.12.42-1.32,0-2.69-.19-4-.27-.83,0-2.51-.33-3,.6s1.13,1.38,1.79,1.52c.95.21,2.9.08,3.08,1.34.26,1.84-3.18,2.33-4.53,2.92s-4.55,1.71-2.38,2.93c1.46.82,4.53-1.05,5.77-1.55a19,19,0,0,0-4.51,1.88c-.85.49-2.51,1.15-2.51,2.11,0,1.39,3.08.56,3.84.23a13.7,13.7,0,0,0,3.43-1.9c-1.29.69-6,2.7-4.49,4.35,1,1,4.66-1.82,6.14-2.42-.81.75-3.25,1.14-3.05,2.73.1.8,1.48.16,2.14-.2.93-.51,1.76-1.25,2.7-1.69a13.44,13.44,0,0,0,2-1.35c1.68-1.2,3.21-1.48,4.66-3a52,52,0,0,1,4-4.13C418.1,238.85,420.85,236.84,418.78,235.39Z" transform="translate(-63.67 -80.45)"/><path class="cls-9" d="M414.67,234.64l4,9.21s41.13-13.34,39.2-24.14c-1.69-9.48-25.62-41.24-30.84-42.38-7-1.53-9.81,15.16-5.79,19.21,8.49,8.54,20.59,20.54,19.6,22.47S414.67,234.64,414.67,234.64Z" transform="translate(-63.67 -80.45)"/><path class="cls-5" d="M196.47,232.66c.35,1.11,2.58,3,1.58,4.31-.5.67-2.52-1.08-2.93-1.75-.58-.95-4.48-8.7-5-10.88-.4-1.7-.77-3.36-1.25-4.93a23.85,23.85,0,0,0,5.08-3.24c2.27,1.35,4.64,3.15,6.88,4.44,1.2.69,2.54,1.22,3.77,1.83.78.39,2.45,1,2.41,2.1s-1.74.66-2.41.45c-1-.31-2.68-1.44-3.5-.39-1.19,1.54,1.68,3.78,2.59,5s4,4.73,1.42,4.71c-.55,0-3.86-3.53-4.39-4,.1.16,2.2,2.68,2.3,2.85.52.88,2.09,2.77,1.47,3.55-1.31,1.67-4.66-3.47-5.18-4.17l1.26,2c1.1,1.55,1.75,2.83.65,3.16C199.85,238.16,197.5,234,196.47,232.66Z" transform="translate(-63.67 -80.45)"/><path d="M197.17,216.52l-9.49,5.87s-20.92-36.32-21.29-46.79c-.3-8.43,1.44-18.9,9.64-37.45,5.23-11.83,10.92-16.59,13.28-15.65,1.68.67,11.19,4.91,6.51,19.44-1.63,5.07-12.31,26.7-12.48,28.77S197.17,216.52,197.17,216.52Z" transform="translate(-63.67 -80.45)"/><path class="cls-5" d="M247.64,221c2.05,2.67,6.39,2.55,9.06,1.42,2.16-.91,2.28-3.26,2.59-6.69.21-2.32.31-4.51-.3-5.21-2.76-2-2.84,5.72-3.3,7.68,0,0,1.07-8.18-.37-8.88-2.7-1.24-2.6,6.33-2.91,8.21.5-1.79.56-5.11.2-5.6,0-1.46-1.13-1.18-1.4-1-1.38.83-1.38,7-1.38,7,0-1.1.85-5.14-.92-4.32-1.16.54-1.22,2.29-1.45,3.22C247,218.64,247.18,220.4,247.64,221Z" transform="translate(-63.67 -80.45)"/><path d="M243.2,85.43s4.09,5.88-5.41,9.81-23.17-6.43-23.17-6.43.35-5.16,7.93-7.37c5.66-1.65,11-1.42,13.86,1.86C241.32,88.89,243.2,85.43,243.2,85.43Z" transform="translate(-63.67 -80.45)"/></svg>