<svg id="Layer_1" data-name="Layer 1" xmlns="http://www.w3.org/2000/svg" viewBox="0 0 400.36 343.92"><defs><style>.cls-1{fill:#fefefe;}.cls-2{fill:#c6c6c6;}.cls-3{fill:#9d9e9e;}.cls-4{fill:#fd425f;}.cls-5{fill:#fff;}.cls-6{fill:#8c8d96;}.cls-7{fill:#f14910;}.cls-8{fill:#f88667;}.cls-9{fill:#e45940;}.cls-10{fill:#d0d1de;}</style></defs><title>chicocontactos</title><polygon points="245.51 335.61 183.55 335.61 188.64 260.91 240.41 260.91 245.51 335.61"/><path d="M299.81,358a4,4,0,0,0-3.36-1.8H225a4.05,4.05,0,0,0-3.36,1.8l-9.36,14a4,4,0,0,0,3.36,6.3h90.2a4,4,0,0,0,3.36-6.3Z" transform="translate(-46.19 -34.37)"/><rect x="45.38" y="53.99" width="338.3" height="226.78" rx="17.44" ry="17.44"/><rect class="cls-1" x="60.95" y="69.02" width="307.15" height="194.38"/><rect class="cls-2" x="68.63" y="90.19" width="291.8" height="173.21"/><rect class="cls-3" x="68.63" y="90.19" width="291.8" height="14.33"/><rect class="cls-1" x="255.64" y="151.25" width="90.62" height="11.96"/><rect class="cls-1" x="255.64" y="172.4" width="90.62" height="11.96"/><rect class="cls-1" x="255.64" y="193.55" width="90.62" height="11.96"/><rect class="cls-1" x="95.54" y="118.9" width="90.62" height="11.96"/><rect class="cls-1" x="95.54" y="140.04" width="90.62" height="11.96"/><path class="cls-4" d="M228.12,177.53H57a10.85,10.85,0,0,0-10.85,10.85v55.17A10.85,10.85,0,0,0,57,254.4H164.22L205,289.11,185.66,254.4h42.46A10.85,10.85,0,0,0,239,243.55V188.38A10.85,10.85,0,0,0,228.12,177.53Z" transform="translate(-46.19 -34.37)"/><rect class="cls-5" x="64.47" y="158.04" width="115.3" height="6.64"/><rect class="cls-5" x="64.47" y="171.59" width="115.3" height="6.64"/><rect class="cls-5" x="64.47" y="185.13" width="115.3" height="6.64"/><rect class="cls-5" x="64.47" y="198.68" width="76.53" height="6.64"/><circle cx="33.1" cy="180.41" r="22.24"/><ellipse class="cls-5" cx="33.1" cy="173.8" rx="6.28" ry="6.47"/><path class="cls-5" d="M79.39,215.62h-.23A11.14,11.14,0,0,0,68,226.76v7.11a21.64,21.64,0,0,0,22.51,0v-7.11A11.14,11.14,0,0,0,79.39,215.62Z" transform="translate(-46.19 -34.37)"/><path class="cls-6" d="M435.7,34.37H264.61a10.85,10.85,0,0,0-10.85,10.85v55.17a10.85,10.85,0,0,0,10.85,10.85h49.54l-13.27,34.71,34.71-34.71H435.7a10.85,10.85,0,0,0,10.85-10.85V45.22A10.85,10.85,0,0,0,435.7,34.37Z" transform="translate(-46.19 -34.37)"/><rect class="cls-5" x="272.04" y="14.88" width="115.3" height="6.64"/><rect class="cls-5" x="272.04" y="28.42" width="115.3" height="6.64"/><rect class="cls-5" x="272.04" y="41.97" width="115.3" height="6.64"/><rect class="cls-5" x="272.04" y="55.51" width="76.53" height="6.64"/><circle cx="240.67" cy="37.25" r="22.24"/><ellipse class="cls-5" cx="240.67" cy="30.63" rx="6.28" ry="6.47"/><path class="cls-5" d="M287,72.45h-.23A11.14,11.14,0,0,0,275.6,83.6V90.7a21.64,21.64,0,0,0,22.51,0V83.6A11.14,11.14,0,0,0,287,72.45Z" transform="translate(-46.19 -34.37)"/><rect class="cls-7" x="263.68" y="224.38" width="87.85" height="27.88" rx="9.99" ry="9.99"/><path class="cls-5" d="M345,269.24a3,3,0,0,1-2.35,2.95,3.35,3.35,0,0,1,2.79,3.43c0,2.33-2,3.78-5.23,3.78h-6.7V265.82H340C343,265.82,345,267.15,345,269.24Zm-3.64.62c0-.81-.6-1.3-1.59-1.28h-2.71v2.64h2.71C340.75,271.22,341.35,270.72,341.35,269.86Zm.43,5.31c0-.85-.78-1.39-2-1.37h-2.71v2.85h2.71C341,276.65,341.78,276.1,341.78,275.17Z" transform="translate(-46.19 -34.37)"/><path class="cls-5" d="M353.45,276.53a2.57,2.57,0,0,0,2.65-2.83v-7.89h3.55v7.89c0,3.58-2.4,5.85-6.22,5.85s-6.3-2.27-6.3-5.85v-7.89h3.55v7.89A2.65,2.65,0,0,0,353.45,276.53Z" transform="translate(-46.19 -34.37)"/><path class="cls-5" d="M369.18,275.06v4.34h-3.55v-4.24l-5-9.34h3.55l3.22,5.83,3.14-5.83h3.54Z" transform="translate(-46.19 -34.37)"/><path class="cls-8" d="M271.07,170.27a50.44,50.44,0,0,1-13.73.61,20.39,20.39,0,0,1-4.82-1c.22,5.72.27,19.11-3.8,24.66,0,0,1.46,6.59,13.36,6.78s13.23-8.78,13.23-8.78S271.31,178.7,271.07,170.27Z" transform="translate(-46.19 -34.37)"/><path class="cls-9" d="M248.78,194.7a5,5,0,0,0,.18.47l0,.06a6.69,6.69,0,0,0,.37.69l0,0a8.12,8.12,0,0,0,.61.84l.1.12a9.75,9.75,0,0,0,2.16,1.87l.16.1a12.63,12.63,0,0,0,1.61.84l.24.1a15.77,15.77,0,0,0,2.09.71,16.76,16.76,0,0,1,3.5-8.44,21,21,0,0,1,13.39-7.77,80.62,80.62,0,0,1-2.16-14.06,50.44,50.44,0,0,1-13.73.61,20.39,20.39,0,0,1-4.82-1c.22,5.72.27,19.11-3.8,24.66l0,.14Z" transform="translate(-46.19 -34.37)"/><path class="cls-8" d="M254.59,138.19s19.49-5.76,22.59-1,2.54,12.34,3.83,15.7,6.13,6.9,6.65,8.24-3.24,3.91-3.76,5-2.49,12.08-5.87,14.51-21.53-4-26-12.6S249.36,141,254.59,138.19Z" transform="translate(-46.19 -34.37)"/><path d="M263.47,141.61a19.34,19.34,0,0,1-2.05,10.07c-1.17,2.33,4.65,8.53,3,11.35-1.08,1.88-2.66,1.4-4.09-2.3a5.64,5.64,0,0,0-3.15-2.69c-4.77-2.06-5.88,5.21-1.6,7.37,3,1.51,1.21,9.09,1.21,9.09C253.6,177,243,174,244.14,166.22c.74-4.94,1.07-6.82-.66-8-3.13-2.18-7.21-8.22-2.05-13.35,7.1-7.06.62-9.31,8.84-11.34S265.27,136.48,263.47,141.61Z" transform="translate(-46.19 -34.37)"/><path d="M248.93,137.46c.46-1.79,3.7-4.1,5.31-5.3a23.65,23.65,0,0,1,8.41-3.79,21.71,21.71,0,0,1,9.37-.32c2.66.51,4.9,1.69,7.63,2,2.52.29,5,.17,6.79-1.32a17.38,17.38,0,0,1,.33,6.17c-.44,2.43-2,4.61-3.5,6.78-4,5.9-14.71,9.16-22.29,6-3.66-1.51-7-2.81-8.75-6A19.07,19.07,0,0,0,248.93,137.46Z" transform="translate(-46.19 -34.37)"/><path d="M352.95,150.17,371.79,192s-5.51,6.2-7.35,4.83-30.1-35.31-32.86-37.07S352.95,150.17,352.95,150.17Z" transform="translate(-46.19 -34.37)"/><path class="cls-7" d="M306.23,155.37s.08,12,7.43,14.78c0,0,37.68-15.61,45.26-17.11s35.15-1.73,35.15-1.73l-27.8-49.63s-13.33,26.65-25.5,35.38S306.23,155.37,306.23,155.37Z" transform="translate(-46.19 -34.37)"/><path d="M330.67,163.26c3-1.18,6.09-2.41,9.15-3.59-4.62-5.2-7-12.45-7.93-17-2.86,1.64-5.82,3.21-8.69,4.68A34.57,34.57,0,0,0,330.67,163.26Z" transform="translate(-46.19 -34.37)"/><ellipse class="cls-7" cx="383.93" cy="122.91" rx="22.09" ry="37.11" transform="translate(-63.98 122.05) rotate(-22.52)"/><ellipse cx="385.46" cy="122.28" rx="18.79" ry="31.57" transform="translate(-63.63 122.57) rotate(-22.52)"/><path class="cls-8" d="M350.47,180.28c-.9-.54-.64-3.91-.46-4.79.28-1.37,1.23-3.16.28-4.47-1.68-2.32-4,3.92-4.35,4.82a6.54,6.54,0,0,0-.43,4.15,16.37,16.37,0,0,0,3.61,5.45c-.17.62-.37,1.26-.6,2a41.41,41.41,0,0,1,4.54,2.3c1.82,1,1.72,2.35,3.43,3.52l1.7-3.91C357.47,188.42,352,181.18,350.47,180.28Z" transform="translate(-46.19 -34.37)"/><path class="cls-8" d="M362.54,166.59c-1.63-1.75-4.17-1.08-6.13.36-1.44,1-5.58,4.4-4.47,6.83.93,2,6.26-2.45,6.26-2.45-2,1.69-5.62,3-4.7,4.73,1,1.89,5.68-.8,6.7-1.55-1,.27-6.24,3.42-4.16,5.07,1.43,1.13,5.25-1.24,6.39-2-1.53.47-3.62,1.83-3.22,4,.67,1.16,3,.39,4.28-.13,1.95-.79,3.78-1.1,3.94-3.52a10.92,10.92,0,0,0,.07-1.31,13.28,13.28,0,0,0-1.71-5.27A23,23,0,0,0,362.54,166.59Z" transform="translate(-46.19 -34.37)"/><path class="cls-8" d="M164.18,180.47a21.44,21.44,0,0,1-2.18-4.64c-.48-1.39-.83-2.81-1.31-4.19a10.88,10.88,0,0,1-.94-4.11,12,12,0,0,1,.5-2.51c.28-1.07.67-2.1.89-3.18s.11-1.9.29-2.85a17,17,0,0,1,1.66-5.27,19.56,19.56,0,0,1,2.42-3.33,12.48,12.48,0,0,1,1.43-1.53,3.8,3.8,0,0,0,1.31-1.62,1.55,1.55,0,0,0-1.13-2.08,5.78,5.78,0,0,0-5.34,1.75c-1.42,2-2.09,4.34-3.67,6.23-4.83,5.76-9.37-1-15-3.46a33.76,33.76,0,0,1-5.45-3.51c-1-.76-5.34-4.87-7.38-3.8-1.51.79,1.44,4.25,2.87,5.09.56.33,5.39,4.26,6,4.45-1.42-.24-5.12-2.69-8.1-5-2.14-1.67-4.21-3.32-5.38-2.37-3.59,2.94,10.49,9.67,11.59,10.29-1.17.1-12.2-7.71-13.24-4.84-.57,1.58,1.71,3.14,3.58,4.16,2.35,1.28,6.28,2.19,7.17,2.88-1.66.56-9-4.4-9-1.37,0,2,4.53,3.47,6.24,4s6.92,4,8.56,4.83c5.45,2.6,7.7,2.3,9.85,5.56,1.37,2.08,3.81,13.07,5.78,17.25Z" transform="translate(-46.19 -34.37)"/><path class="cls-7" d="M347.44,185.9c-4.86,14.14-15.25,39.17-18.68,37.41-6.43-3.29-20.28-14.62-30.63-21.54-8-5.37-12-6.93-12-6.93L293.3,229s34.14,25.93,41.29,22c5.62-3.12,19.47-42.55,24.35-58.88C358.94,192.06,347.52,186,347.44,185.9Z" transform="translate(-46.19 -34.37)"/><path class="cls-7" d="M313.63,234.61c-3.85-5-18.53-19.37-22.5-22.44l1.15,16.19s34.41,25.87,42,22.64C327.74,246.79,318.3,240.68,313.63,234.61Z" transform="translate(-46.19 -34.37)"/><path class="cls-7" d="M228.18,196.65s-42,16.95-46.55,15.75-19.79-44.48-19.79-44.48l-12.71,5.16s13.58,62.43,22.32,65.35,60.85-12.13,60.85-12.13S233.14,211.15,228.18,196.65Z" transform="translate(-46.19 -34.37)"/><path class="cls-7" d="M192.36,234.55c-3.7,1.33-7.46,2.63-11.24,3.75,17.81-2.35,51.17-12,51.17-12a91.45,91.45,0,0,0-.91-15.87C221,221.63,206.34,229.53,192.36,234.55Z" transform="translate(-46.19 -34.37)"/><path class="cls-10" d="M382.92,126.61c-1.92-5.92-7.7-9.36-12.91-7.67a9,9,0,0,0-4.34,3.14,52,52,0,0,0,2.42,7.39,50.1,50.1,0,0,0,6.48,11.3,8.69,8.69,0,0,0,2.39-.39C382.18,138.7,384.84,132.53,382.92,126.61Z" transform="translate(-46.19 -34.37)"/><path class="cls-7" d="M228.25,247.72c-1.48,14.57-2.64,45.2-3.51,49.48h68.88c1.22-22.88.81-56-.32-68.21-2-21.24-7.2-34.15-7.2-34.15s-5.14-1.63-11.24-4c0,0-12.68,7.75-24.48.1,0,0-21.31,5-23.89,6.28C224.35,198.27,229.83,232.16,228.25,247.72Z" transform="translate(-46.19 -34.37)"/><path class="cls-7" d="M246.47,267.66a54.42,54.42,0,0,0-3.94-19.87,17.92,17.92,0,0,1-1.26-4.46,29.57,29.57,0,0,0-2.92-10.17c-1.54-2.33-3.1-4.64-4.62-7-.85-1.15-1.73-2.36-2.71-3.79a65.51,65.51,0,0,1-4.21-7.44c.81,10.7,2.24,25,1.45,32.77-1.48,14.57-2.64,45.2-3.51,49.48H256.8c-4.12-5.3-6.59-11.76-9-19.63A35.27,35.27,0,0,1,246.47,267.66Z" transform="translate(-46.19 -34.37)"/></svg>